<svg width="152" height="42" viewBox="0 0 152 42" fill="none" xmlns="http://www.w3.org/2000/svg">
<g filter="url(#filter0_d_335_8)">
<path d="M138.176 21.8803L135.271 26.6632H130.956L136.162 18.9327L130.898 11.2578H135.443L138.694 16.0129L141.628 11.2578H145.943L140.707 18.9327L146 26.6632H141.455L138.176 21.8803Z" fill="white"/>
<path d="M57.4324 7.25391V23.5769H64.0484V26.6635H53.4053V7.25391H57.4324Z" fill="white"/>
<path d="M72.8792 11.0078C75.4393 11.0078 77.1939 12.1757 78.1432 13.4549V11.2581H82.1991V26.6634H78.1432V24.411C77.1939 25.7458 75.3817 26.9137 72.8504 26.9137C68.8233 26.9137 65.6016 23.7158 65.6016 18.9051C65.6016 14.0944 68.8233 11.0078 72.8792 11.0078ZM73.9147 14.4281C71.7573 14.4281 69.715 15.9854 69.715 18.9051C69.715 21.8249 71.7573 23.4934 73.9147 23.4934C76.1296 23.4934 78.1432 21.8805 78.1432 18.9608C78.1432 16.041 76.1296 14.4281 73.9147 14.4281Z" fill="white"/>
<path d="M97.3005 18.1539C97.3005 15.679 95.891 14.3442 93.7624 14.3442C91.5763 14.3442 90.1668 15.679 90.1668 18.1539V26.663H86.1396V11.2576H90.1668V13.1763C91.2023 11.8694 92.9282 11.0352 94.9705 11.0352C98.6812 11.0352 101.328 13.371 101.328 17.6255V26.663H97.3005V18.1539Z" fill="white"/>
<path d="M111.425 11.0079C113.524 11.0079 115.538 11.9533 116.631 13.3993V6.08594H120.716V26.6635H116.631V24.3833C115.682 25.8014 113.898 26.9137 111.396 26.9137C107.34 26.9137 104.118 23.7159 104.118 18.9052C104.118 14.0945 107.34 11.0079 111.425 11.0079ZM112.431 14.4282C110.274 14.4282 108.232 15.9854 108.232 18.9052C108.232 21.825 110.274 23.4934 112.431 23.4934C114.646 23.4934 116.66 21.8806 116.66 18.9608C116.66 16.041 114.646 14.4282 112.431 14.4282Z" fill="white"/>
<path d="M124.225 7.14252C124.225 5.86337 125.26 4.8623 126.698 4.8623C128.108 4.8623 129.172 5.86337 129.172 7.14252C129.172 8.42166 128.108 9.42273 126.698 9.42273C125.26 9.42273 124.225 8.42166 124.225 7.14252ZM124.656 11.258H128.683V26.6634H124.656V11.258Z" fill="white"/>
<path d="M32.8957 29.9995C30.4506 29.9995 28.1494 29.36 26.1646 28.2477C30.1918 25.9953 32.8957 21.7963 32.8957 16.9856H19.4336C19.4336 12.1749 22.1375 7.97601 26.1646 5.7236C28.1494 4.63911 30.4506 4.02734 32.8957 4.02734C40.3171 4.02734 46.329 9.83911 46.329 17.0134C46.329 24.1878 40.3171 29.9995 32.8957 29.9995Z" fill="#D3D3D3"/>
<path d="M26.1646 28.2757C22.1375 26.0233 19.4336 21.8244 19.4336 17.0137H32.8669C32.8957 21.8244 30.1918 26.0233 26.1646 28.2757Z" fill="url(#paint0_linear_335_8)"/>
<path d="M26.1644 28.2759C30.1915 26.0235 32.8954 21.8246 32.8954 17.0139H19.4333C19.4333 12.2032 22.1372 8.00428 26.1644 5.75187C24.1796 4.63957 21.8784 4 19.4333 4C12.0119 4.02781 6 9.83957 6 17.0139C6 24.1882 12.0119 30 19.4333 30C21.8784 30 24.1796 29.3882 26.1644 28.2759Z" fill="white"/>
<g style="mix-blend-mode:multiply" opacity="0.3">
<path d="M19.4336 17.014H32.8669L26.1646 5.75195C22.1375 8.00436 19.4336 12.2033 19.4336 17.014Z" fill="url(#paint1_linear_335_8)"/>
</g>
<g style="mix-blend-mode:multiply" opacity="0.3">
<path d="M19.4337 16.9861C19.4337 12.1754 22.1376 7.97647 26.1648 5.72406C24.18 4.63957 21.8788 4 19.4337 4C16.9887 4 14.6875 4.63957 12.7314 5.72406L19.4337 16.9861Z" fill="url(#paint2_linear_335_8)"/>
</g>
</g>
<defs>
<filter id="filter0_d_335_8" x="-1" y="0" width="157" height="42" filterUnits="userSpaceOnUse" color-interpolation-filters="sRGB">
<feFlood flood-opacity="0" result="BackgroundImageFix"/>
<feColorMatrix in="SourceAlpha" type="matrix" values="0 0 0 0 0 0 0 0 0 0 0 0 0 0 0 0 0 0 127 0" result="hardAlpha"/>
<feOffset dy="4"/>
<feGaussianBlur stdDeviation="2"/>
<feComposite in2="hardAlpha" operator="out"/>
<feColorMatrix type="matrix" values="0 0 0 0 0 0 0 0 0 0 0 0 0 0 0 0 0 0 0.25 0"/>
<feBlend mode="normal" in2="BackgroundImageFix" result="effect1_dropShadow_335_8"/>
<feBlend mode="normal" in="SourceGraphic" in2="effect1_dropShadow_335_8" result="shape"/>
</filter>
<linearGradient id="paint0_linear_335_8" x1="12.6323" y1="7.24987" x2="33.241" y2="27.6801" gradientUnits="userSpaceOnUse">
<stop stop-color="#FFCF8B"/>
<stop offset="1" stop-color="#FF8B79"/>
</linearGradient>
<linearGradient id="paint1_linear_335_8" x1="26.1647" y1="-4.65352" x2="26.1647" y2="16.6631" gradientUnits="userSpaceOnUse">
<stop offset="0.4935" stop-color="white"/>
<stop offset="0.5384" stop-color="#F3F3F3"/>
<stop offset="0.6207" stop-color="#D1D1D1"/>
<stop offset="0.731" stop-color="#9C9C9C"/>
<stop offset="0.8655" stop-color="#515151"/>
<stop offset="1"/>
</linearGradient>
<linearGradient id="paint2_linear_335_8" x1="15.3373" y1="-0.393527" x2="22.9078" y2="12.3659" gradientUnits="userSpaceOnUse">
<stop offset="0.4935" stop-color="white"/>
<stop offset="0.5384" stop-color="#F3F3F3"/>
<stop offset="0.6207" stop-color="#D1D1D1"/>
<stop offset="0.731" stop-color="#9C9C9C"/>
<stop offset="0.8655" stop-color="#515151"/>
<stop offset="1"/>
</linearGradient>
</defs>
</svg>
