<svg width="162" height="97" viewBox="0 0 162 97" fill="none" xmlns="http://www.w3.org/2000/svg">
<path d="M51.4321 40.2534V56.5764H58.0481V59.663H47.405V40.2534H51.4321Z" fill="#1A73E8"/>
<path d="M66.879 44.0076C69.4391 44.0076 71.1938 45.1755 72.1431 46.4546V44.2578H76.199V59.6632H72.1431V57.4108C71.1938 58.7455 69.3816 59.9134 66.8503 59.9134C62.8231 59.9134 59.6014 56.7156 59.6014 51.9049C59.6014 47.0942 62.8231 44.0076 66.879 44.0076ZM67.9146 47.4279C65.7572 47.4279 63.7149 48.9851 63.7149 51.9049C63.7149 54.8247 65.7572 56.4931 67.9146 56.4931C70.1295 56.4931 72.1431 54.8803 72.1431 51.9605C72.1431 49.0407 70.1295 47.4279 67.9146 47.4279Z" fill="#1A73E8"/>
<path d="M91.3006 51.1541C91.3006 48.6793 89.8911 47.3445 87.7625 47.3445C85.5763 47.3445 84.1668 48.6793 84.1668 51.1541V59.6632H80.1397V44.2579H84.1668V46.1766C85.2024 44.8696 86.9283 44.0354 88.9706 44.0354C92.6813 44.0354 95.3277 46.3712 95.3277 50.6258V59.6632H91.3006V51.1541Z" fill="#1A73E8"/>
<path d="M105.424 44.0076C107.524 44.0076 109.538 44.9531 110.631 46.3991V39.0857H114.715V59.6632H110.631V57.383C109.682 58.8012 107.898 59.9135 105.396 59.9135C101.34 59.9135 98.1179 56.7156 98.1179 51.9049C98.1179 47.0942 101.34 44.0076 105.424 44.0076ZM106.431 47.4279C104.274 47.4279 102.231 48.9852 102.231 51.9049C102.231 54.8247 104.274 56.4932 106.431 56.4932C108.646 56.4932 110.66 54.8803 110.66 51.9606C110.66 49.0408 108.646 47.4279 106.431 47.4279Z" fill="#1A73E8"/>
<path d="M118.225 40.1423C118.225 38.8631 119.26 37.8621 120.699 37.8621C122.108 37.8621 123.172 38.8631 123.172 40.1423C123.172 41.4214 122.108 42.4225 120.699 42.4225C119.26 42.4225 118.225 41.4214 118.225 40.1423ZM118.656 44.2578H122.683V59.6631H118.656V44.2578Z" fill="#1A73E8"/>
<path d="M132.176 54.8803L129.271 59.6632H124.956L130.162 51.9327L124.898 44.2578H129.443L132.694 49.0129L135.628 44.2578H139.942L134.707 51.9327L140 59.6632H135.455L132.176 54.8803Z" fill="#1A73E8"/>
<path d="M26.8954 63C24.4503 63 22.1491 62.3605 20.1643 61.2482C24.1915 58.9957 26.8954 54.7968 26.8954 49.9861H13.4333C13.4333 45.1754 16.1372 40.9765 20.1643 38.7241C22.1491 37.6396 24.4503 37.0278 26.8954 37.0278C34.3168 37.0278 40.3287 42.8396 40.3287 50.0139C40.3287 57.1883 34.3168 63 26.8954 63Z" fill="#FF9731"/>
<path d="M20.1643 61.276C16.1372 59.0235 13.4333 54.8246 13.4333 50.0139H26.8666C26.8954 54.8246 24.1915 59.0235 20.1643 61.276Z" fill="url(#paint0_linear_2:4488)"/>
<path d="M20.1644 61.2759C24.1915 59.0235 26.8954 54.8246 26.8954 50.0139H13.4333C13.4333 45.2032 16.1372 41.0043 20.1644 38.7519C18.1796 37.6396 15.8784 37 13.4333 37C6.01192 37.0278 0 42.8396 0 50.0139C0 57.1882 6.01192 63 13.4333 63C15.8784 63 18.1796 62.3882 20.1644 61.2759Z" fill="#1A73E8"/>
<g style="mix-blend-mode:multiply" opacity="0.3">
<path d="M13.4333 50.014H26.8666L20.1643 38.752C16.1372 41.0044 13.4333 45.2033 13.4333 50.014Z" fill="url(#paint1_linear_2:4488)"/>
</g>
<g style="mix-blend-mode:multiply" opacity="0.3">
<path d="M13.4333 49.9861C13.4333 45.1754 16.1372 40.9765 20.1643 38.7241C18.1795 37.6396 15.8783 37 13.4333 37C10.9883 37 8.68705 37.6396 6.73102 38.7241L13.4333 49.9861Z" fill="url(#paint2_linear_2:4488)"/>
</g>
<defs>
<linearGradient id="paint0_linear_2:4488" x1="6.63197" y1="40.2501" x2="27.2407" y2="60.6803" gradientUnits="userSpaceOnUse">
<stop stop-color="#FFCF8B"/>
<stop offset="1" stop-color="#FF8B79"/>
</linearGradient>
<linearGradient id="paint1_linear_2:4488" x1="20.1644" y1="28.3465" x2="20.1644" y2="49.6631" gradientUnits="userSpaceOnUse">
<stop offset="0.4935" stop-color="white"/>
<stop offset="0.5384" stop-color="#F3F3F3"/>
<stop offset="0.6207" stop-color="#D1D1D1"/>
<stop offset="0.731" stop-color="#9C9C9C"/>
<stop offset="0.8655" stop-color="#515151"/>
<stop offset="1"/>
</linearGradient>
<linearGradient id="paint2_linear_2:4488" x1="9.33685" y1="32.6065" x2="16.9073" y2="45.3659" gradientUnits="userSpaceOnUse">
<stop offset="0.4935" stop-color="white"/>
<stop offset="0.5384" stop-color="#F3F3F3"/>
<stop offset="0.6207" stop-color="#D1D1D1"/>
<stop offset="0.731" stop-color="#9C9C9C"/>
<stop offset="0.8655" stop-color="#515151"/>
<stop offset="1"/>
</linearGradient>
</defs>
</svg>
