<svg width="55" height="86" viewBox="0 0 55 86" fill="none" xmlns="http://www.w3.org/2000/svg">
<path d="M29.4611 31.7024C29.218 29.0749 29.404 21.9324 36.2463 12.0003C36.7639 11.2508 36.67 10.2399 36.0272 9.59735C33.2376 6.80773 31.5105 5.04741 30.299 3.8156C28.7061 2.19141 27.9789 1.45135 26.9145 0.486342C26.2039 -0.152472 25.1285 -0.163596 24.4103 0.462584C12.4841 10.8403 -0.762434 32.2843 1.15439 58.5563C2.27758 73.9829 13.53 85.18 27.9089 85.18C42.6652 85.18 54.6706 73.1764 54.6706 58.42C54.6706 44.1847 43.4976 32.5107 29.4611 31.7024ZM27.9089 81.409C15.5609 81.409 5.89212 71.6831 4.91447 58.2839C4.91447 58.2839 4.91447 58.2839 4.91447 58.282C2.7582 28.7342 20.3225 9.5421 25.6293 4.46007C26.1467 4.9701 26.7378 5.57026 27.6088 6.45777C28.6582 7.52573 30.0946 8.98776 32.2673 11.168C23.961 23.9652 25.5281 33.0834 26.2148 34.3908C26.5408 35.0113 27.2092 35.4293 27.9089 35.4293C40.5864 35.4293 50.8996 45.7425 50.8996 58.42C50.8996 71.0958 40.5864 81.409 27.9089 81.409Z" fill="#1A73E8" fill-opacity="0.1"/>
</svg>
